<svg xmlns="http://www.w3.org/2000/svg" viewBox="0 0 100 100" width="500" height="500" class="illustration"><defs><style>.cls-1{fill:#69d7f9;}.cls-2{fill:none;stroke:#3a00ba;stroke-miterlimit:10;stroke-width:2px;}</style></defs><g id="Layer_2" data-name="Layer 2"><path class="cls-1" d="M89.57,21.92v4H83.78c-.06-7.49-5.79-9.27-7.42-9.62l-.43-.08,8,.08h0A5.61,5.61,0,0,1,89.57,21.92Z"></path><path class="cls-1" d="M89.57,29.33V77.75a5,5,0,0,1-5,5h-.46V29.33Z"></path><path class="cls-2" d="M89.57,21.92v4H10.44V22a5.6,5.6,0,0,1,5.61-5.61H84A5.61,5.61,0,0,1,89.57,21.92Z"></path><path class="cls-2" d="M89.57,29.33V77.75a5,5,0,0,1-5,5H15.43a5,5,0,0,1-5-5V29.33Z"></path><line class="cls-2" x1="14.35" y1="21.39" x2="18.75" y2="21.39"></line><line class="cls-2" x1="20.45" y1="21.39" x2="24.85" y2="21.39"></line><line class="cls-2" x1="26.55" y1="21.39" x2="30.95" y2="21.39"></line><polyline class="cls-2" points="80.33 49.03 84.12 49.03 84.12 82.91 80.33 82.91"></polyline><rect class="cls-2" x="15.89" y="49.03" width="16.11" height="6.78"></rect><rect class="cls-2" x="32" y="49.03" width="16.11" height="6.78"></rect><rect class="cls-2" x="48.11" y="49.03" width="16.11" height="6.78"></rect><rect class="cls-2" x="64.22" y="49.03" width="16.11" height="6.78"></rect><rect class="cls-2" x="15.89" y="62.58" width="16.11" height="6.78"></rect><rect class="cls-2" x="32" y="62.58" width="16.11" height="6.78"></rect><rect class="cls-2" x="48.11" y="62.58" width="16.11" height="6.78"></rect><rect class="cls-2" x="64.22" y="62.58" width="16.11" height="6.78"></rect><rect class="cls-2" x="15.89" y="55.8" width="8.05" height="6.78"></rect><rect class="cls-2" x="72.27" y="55.8" width="8.05" height="6.78"></rect><rect class="cls-2" x="23.94" y="55.8" width="16.11" height="6.78"></rect><rect class="cls-2" x="40.05" y="55.8" width="16.11" height="6.78"></rect><rect class="cls-2" x="56.16" y="55.8" width="16.11" height="6.78"></rect><rect class="cls-2" x="15.89" y="76.14" width="16.11" height="6.78"></rect><rect class="cls-2" x="32" y="76.14" width="16.11" height="6.78"></rect><rect class="cls-2" x="48.11" y="76.14" width="16.11" height="6.78"></rect><rect class="cls-2" x="64.22" y="76.14" width="16.11" height="6.78"></rect><rect class="cls-2" x="15.89" y="69.36" width="8.05" height="6.78"></rect><rect class="cls-2" x="72.27" y="69.36" width="8.05" height="6.78"></rect><rect class="cls-2" x="23.94" y="69.36" width="16.11" height="6.78"></rect><rect class="cls-2" x="40.05" y="69.36" width="16.11" height="6.78"></rect><rect class="cls-2" x="56.16" y="69.36" width="16.11" height="6.78"></rect><line class="cls-2" x1="80.33" y1="49.03" x2="81.9" y2="49.03"></line></g></svg>